<?xml version="1.0" encoding="UTF-8"?>
<svg width="24px" height="24px" viewBox="0 0 24 24" version="1.1" xmlns="http://www.w3.org/2000/svg" xmlns:xlink="http://www.w3.org/1999/xlink">
    <!-- Generator: Sketch 52.6 (67491) - http://www.bohemiancoding.com/sketch -->
    <title>Atom/icons/representative/future estimates</title>
    <desc>Created with Sketch.</desc>
    <defs>
        <path d="M6.54385592,16.992292 C8.16211269,18.2011324 10.0066279,18.8935052 11.8827391,18.8935052 C13.7589347,18.8935052 15.6034498,18.2008216 17.2217066,16.9923974 L18.211933,18.926601 C16.3131046,20.3169364 14.2744329,21 11.8827391,21 C9.49112961,21 7.45235958,20.3169364 5.5536295,18.9263903 L6.54385592,16.992292 Z M16.0162641,4.26443149 C16.0579821,4.56650597 16.0886794,4.88407997 16.0966972,5.19502249 C16.1293412,6.45753167 15.2186398,8.26836447 15.2186398,8.26836447 C15.2186398,8.26836447 16.9154723,7.4252025 17.8528119,7.3902487 C18.0656686,7.38228804 18.3176784,7.37794253 18.5800863,7.37598087 C18.959669,8.25547465 19.1699856,9.22514114 19.1699856,10.2439366 C19.1699856,14.2446087 15.9266741,17.4878579 11.9259835,17.4878579 C7.92518236,17.4878579 4.68196571,14.2446087 4.68196571,10.2439366 C4.68196571,6.24315694 7.92518236,3 11.9259835,3 C13.4436364,3 14.8522989,3.46670554 16.0162641,4.26443149 Z M9.95030428,5.63413043 C6.4363122,6.89255776 6.87692533,10.9008637 6.87710455,10.9024927 L9.95030428,5.63413043 Z M20.0524337,6.95486813 L18.2926021,6.02225296 L16.5328601,6.95507359 L17.4656175,5.19523147 L16.5329549,3.43548945 L18.2926969,4.36809935 L20.0525338,3.43528398 L19.1197764,5.19512611 L20.0524337,6.95486813 Z" id="path-1"></path>
    </defs>
    <g id="Atom/icons/representative/future-estimates" stroke="none" stroke-width="1" fill="none" fill-rule="evenodd">
        <mask id="mask-2" fill="white">
            <use xlink:href="#path-1"></use>
        </mask>
        <g id="Mask">
            <use fill="#624bff" xlink:href="#path-1"></use>
            <use fill="#624bff" xlink:href="#path-1"></use>
        </g>
    </g>
</svg>