<?xml version="1.0" encoding="UTF-8"?>
<svg width="24px" height="24px" viewBox="0 0 24 24" version="1.1" xmlns="http://www.w3.org/2000/svg" xmlns:xlink="http://www.w3.org/1999/xlink">
    <!-- Generator: Sketch 53 (72520) - https://sketchapp.com -->
    <title>Atom/icons/representative/download-data</title>
    <desc>Created with Sketch.</desc>
    <g id="Atom/icons/representative/download-data" stroke="none" stroke-width="1" fill="none" fill-rule="evenodd">
        <path d="M17.8333333,7.1 L13.1666667,7.1 L13.1666667,11.3 L14.6775,11.3 C14.9134257,11.301187 15.1255266,11.4727931 15.2149063,11.7348033 C15.304286,11.9968136 15.2533441,12.2976336 15.0858333,12.497 L12,16.2 L8.91416667,12.497 C8.74665587,12.2976336 8.695714,11.9968136 8.78509372,11.7348033 C8.87447344,11.4727931 9.08657429,11.301187 9.3225,11.3 L10.8333333,11.3 L10.8333333,6.05 L10.25,5 L6.16666667,5 C5.52233446,5 5,5.62680135 5,6.4 L5,17.6 C5,18.3731986 5.52233446,19 6.16666667,19 L17.8333333,19 C18.4776655,19 19,18.3731986 19,17.6 L19,8.5 C19,7.72680135 18.4776655,7.1 17.8333333,7.1 Z" id="Path" fill="#624bff"></path>
    </g>
</svg>