<?xml version="1.0" encoding="UTF-8"?>
<svg width="1524px" height="581px" viewBox="0 0 1524 581" version="1.1" xmlns="http://www.w3.org/2000/svg" xmlns:xlink="http://www.w3.org/1999/xlink">
    <!-- Generator: Sketch 59 (86127) - https://sketch.com -->
    <title>hero-illustration--desktop</title>
    <desc>Created with Sketch.</desc>
    <defs>
        <linearGradient x1="50%" y1="0%" x2="50%" y2="100%" id="linearGradient-1">
            <stop stop-color="#151B28" stop-opacity="0" offset="0%"></stop>
            <stop stop-color="#151E28" stop-opacity="0" offset="100%"></stop>
        </linearGradient>
        <linearGradient x1="0%" y1="89.2563181%" x2="0%" y2="2.56843019%" id="linearGradient-2">
            <stop stop-color="#FFFFFF" stop-opacity="0" offset="0%"></stop>
            <stop stop-color="#FFFFFF" stop-opacity="0.597765516" offset="100%"></stop>
        </linearGradient>
        <radialGradient cx="50%" cy="43.6230587%" fx="50%" fy="43.6230587%" r="51.6107416%" id="radialGradient-3">
            <stop stop-color="#6236FF" stop-opacity="0.226835664" offset="0%"></stop>
            <stop stop-color="#6236FF" stop-opacity="0" offset="100%"></stop>
        </radialGradient>
        <linearGradient x1="-29.6721382%" y1="49.999335%" x2="130.891539%" y2="49.999335%" id="linearGradient-4">
            <stop stop-color="#151E28" offset="0%"></stop>
            <stop stop-color="#F7B500" offset="100%"></stop>
        </linearGradient>
        <linearGradient x1="68.9160509%" y1="143.334452%" x2="40.127977%" y2="30.1400025%" id="linearGradient-5">
            <stop stop-color="#151E28" offset="0%"></stop>
            <stop stop-color="#F7B500" offset="100%"></stop>
        </linearGradient>
        <linearGradient x1="23.1635682%" y1="97.279797%" x2="103.837446%" y2="7.08374892%" id="linearGradient-6">
            <stop stop-color="#151E28" offset="0%"></stop>
            <stop stop-color="#F7B500" offset="100%"></stop>
        </linearGradient>
        <linearGradient x1="33.1711543%" y1="129.732655%" x2="64.3306696%" y2="24.2661482%" id="linearGradient-7">
            <stop stop-color="#151E28" offset="0%"></stop>
            <stop stop-color="#F7B500" offset="100%"></stop>
        </linearGradient>
        <linearGradient x1="41.3158574%" y1="88.5581822%" x2="99.0523411%" y2="20.9307327%" id="linearGradient-8">
            <stop stop-color="#151E28" offset="0%"></stop>
            <stop stop-color="#F7B500" offset="100%"></stop>
        </linearGradient>
        <linearGradient x1="45.7145345%" y1="88.5581822%" x2="86.6761657%" y2="13.4106587%" id="linearGradient-9">
            <stop stop-color="#151E28" offset="0%"></stop>
            <stop stop-color="#BB8F14" offset="100%"></stop>
        </linearGradient>
        <linearGradient x1="-37.1434028%" y1="86.3440608%" x2="46.1137334%" y2="47.2956588%" id="linearGradient-10">
            <stop stop-color="#151E28" offset="0%"></stop>
            <stop stop-color="#F7B500" offset="100%"></stop>
        </linearGradient>
        <linearGradient x1="38.3449602%" y1="85.3690357%" x2="68.3073224%" y2="31.90966%" id="linearGradient-11">
            <stop stop-color="#151E28" offset="0%"></stop>
            <stop stop-color="#F7B500" offset="100%"></stop>
        </linearGradient>
        <linearGradient x1="3.50218012%" y1="92.507808%" x2="57.3236272%" y2="39.775261%" id="linearGradient-12">
            <stop stop-color="#151E28" offset="0%"></stop>
            <stop stop-color="#F7B500" offset="100%"></stop>
        </linearGradient>
        <linearGradient x1="29.7820685%" y1="74.8201734%" x2="82.6365413%" y2="11.6997684%" id="linearGradient-13">
            <stop stop-color="#151E28" offset="0%"></stop>
            <stop stop-color="#EFB108" offset="100%"></stop>
        </linearGradient>
        <linearGradient x1="-0.0526166302%" y1="49.9972709%" x2="99.973702%" y2="49.9972709%" id="linearGradient-14">
            <stop stop-color="#011C4A" offset="0%"></stop>
            <stop stop-color="#F41360" offset="100%"></stop>
        </linearGradient>
        <linearGradient x1="50%" y1="85.5281215%" x2="50.8063821%" y2="11.9186347%" id="linearGradient-15">
            <stop stop-color="#6236FF" offset="0%"></stop>
            <stop stop-color="#6D51F0" offset="57.6952307%"></stop>
            <stop stop-color="#8170EF" offset="100%"></stop>
        </linearGradient>
        <linearGradient x1="71.7631891%" y1="100%" x2="83.4600798%" y2="3.17015896%" id="linearGradient-16">
            <stop stop-color="#4623C1" offset="0%"></stop>
            <stop stop-color="#735FFC" offset="100%"></stop>
        </linearGradient>
        <linearGradient x1="61.6230867%" y1="-142.51187%" x2="38.3769133%" y2="100%" id="linearGradient-17">
            <stop stop-color="#000000" offset="0%"></stop>
            <stop stop-color="#F7B500" offset="100%"></stop>
        </linearGradient>
        <linearGradient x1="100%" y1="-83.69272%" x2="0%" y2="87.112426%" id="linearGradient-18">
            <stop stop-color="#000000" offset="0%"></stop>
            <stop stop-color="#F7B500" offset="100%"></stop>
        </linearGradient>
        <linearGradient x1="-14.9895882%" y1="103.275681%" x2="123.502619%" y2="0.10869171%" id="linearGradient-19">
            <stop stop-color="#151E28" offset="0%"></stop>
            <stop stop-color="#EBA503" offset="100%"></stop>
        </linearGradient>
    </defs>
    <g id="Page-1" stroke="none" stroke-width="1" fill="none" fill-rule="evenodd">
        <g id="hero-illustration--desktop" transform="translate(-80.000000, 0.000000)" fill-rule="nonzero">
            <g transform="translate(840.000000, 290.500000) scale(-1, 1) translate(-840.000000, -290.500000) ">
                <polygon id="Fill-1" fill="url(#linearGradient-1)" points="0 579.828643 1680 579.828643 1680 10.684803 0 10.684803"></polygon>
                <path d="M311.838355,394 L308.844056,392.449052 L305.483467,392.758601 L307.035534,389.762913 L306.72576,386.403771 L309.720592,387.954719 L313.080648,387.64517 L311.529648,390.640858 L311.838355,394 M471.452184,368.176665 L469.234718,364.767355 L465.527034,363.094188 L468.936674,360.876642 L470.609237,357.168991 L472.827237,360.578301 L476.534388,362.250934 L473.12528,364.469547 L471.452184,368.176665 M647.081459,356.785257 L642.816076,354.927428 L638.220126,355.66661 L640.075568,351.399102 L639.339789,346.803898 L643.605172,348.661727 L648.201122,347.923079 L646.345681,352.190053 L647.081459,356.785257 M423.49755,344.664807 L422.240861,342.793636 L420.172684,341.897011 L422.043054,340.640135 L422.939851,338.572027 L424.197606,340.44213 L426.26525,341.339289 L424.39488,342.596699 L423.49755,344.664807 M491.093206,298.064321 L489.149258,297.122865 L487.00377,297.37851 L487.945353,295.435288 L487.68943,293.290326 L489.632845,294.232316 L491.778333,293.975604 L490.836217,295.919893 L491.093206,298.064321 M298.5085,295.416075 L296.949503,294.132513 L294.945306,293.891812 L296.228653,292.33446 L296.469647,290.328795 L298.027578,291.61289 L300.032308,291.853591 L298.748961,293.411477 L298.5085,295.416075 M433.991458,292.872435 L431.620438,290.344806 L428.260383,289.495147 L430.788689,287.123894 L431.638033,283.764219 L434.00852,286.291847 L437.368575,287.141506 L434.841869,289.512759 L433.991458,292.872435 M176.949885,291.513621 L174.10594,289.170654 L170.448375,288.733016 L172.790603,285.8889 L173.229404,282.231417 L176.072282,284.57385 L179.729848,285.012022 L177.388153,287.855071 L176.949885,291.513621 M587.158161,273.732692 L585.105445,269.121478 L580.888048,266.346743 L585.499993,264.294112 L588.272492,260.07784 L590.325207,264.688521 L594.542605,267.462721 L589.93066,269.515886 L587.158161,273.732692 M1559.70279,265.55846 L1557.25553,263.019624 L1553.82723,262.199852 L1556.36513,259.754948 L1557.18622,256.325891 L1559.62815,258.864727 L1563.06178,259.683965 L1560.51855,262.129403 L1559.70279,265.55846 M872.51228,249.339154 L871.131362,245.934647 L868.129599,243.814235 L871.531242,242.431405 L873.65327,239.430379 L875.039519,242.834352 L878.041282,244.954764 L874.634308,246.338128 L872.51228,249.339154 M773.139521,246.45501 L770.697589,243.916173 L767.263956,243.096935 L769.80719,240.652031 L770.622945,237.22244 L773.070208,239.76181 L776.49851,240.580514 L773.960607,243.026486 L773.139521,246.45501 M420.758641,233.316784 L419.117001,232.467125 L417.275955,232.63631 L418.125833,230.994632 L417.955751,229.154416 L419.597923,230.003541 L421.438969,229.834356 L420.588558,231.476034 L420.758641,233.316784 M85.9543375,230.236236 L84.571287,226.83173 L81.5689906,224.711318 L84.9738325,223.327954 L87.094261,220.326928 L88.4773115,223.731435 L91.4790747,225.851313 L88.0742328,227.234677 L85.9543375,230.236236 M508.229915,219.165585 L507.013748,217.296549 L504.982359,216.380177 L506.85113,215.164396 L507.767654,213.133113 L508.983288,215.001082 L511.014677,215.917988 L509.145906,217.133769 L508.229915,219.165585 M604.475615,212.9223 L602.140318,211.904524 L599.623742,212.309072 L600.636771,209.970375 L600.236891,207.452353 L602.572188,208.470663 L605.088764,208.065581 L604.075736,210.404811 L604.475615,212.9223 M364.141547,196.239203 L363.657959,194.770446 L362.459387,193.793765 L363.928811,193.311295 L364.904517,192.112059 L365.388105,193.58135 L366.586145,194.557497 L365.117253,195.040501 L364.141547,196.239203 M1516.42515,195.749795 L1515.30016,193.2227 L1512.98619,191.702173 L1515.51343,190.577656 L1517.03297,188.266712 L1518.15796,190.793807 L1520.47193,192.3138 L1517.9447,193.439384 L1516.42515,195.749795 M289.085203,194.175898 L287.280413,189.643672 L283.315739,186.801157 L287.848242,184.996165 L290.691119,181.030734 L292.495376,185.56296 L296.460583,188.406009 L291.928614,190.211001 L289.085203,194.175898 M487.700094,177.896816 L486.400218,176.511317 L484.559172,176.045926 L485.944889,174.746353 L486.410349,172.90507 L487.709691,174.291102 L489.550737,174.756494 L488.166087,176.055532 L487.700094,177.896816 M729.861879,176.646344 L728.736884,174.119783 L726.428246,172.599256 L728.955485,171.474205 L730.475028,169.163795 L731.600022,171.690356 L733.908661,173.210883 L731.386753,174.335934 L729.861879,176.646344 M880.365916,174.040261 L880.205964,172.059146 L879.000994,170.477777 L880.984397,170.316598 L882.562588,169.112025 L882.727872,171.093673 L883.932843,172.675043 L881.94944,172.835688 L880.365916,174.040261 M93.8069075,154.937344 L93.6464224,152.956229 L92.4419849,151.37486 L94.4232553,151.213681 L96.0051792,150.009108 L96.1661974,151.990756 L97.3711681,153.572125 L95.3882982,153.732771 L93.8069075,154.937344 M212.291781,152.473226 L211.41098,149.792424 L209.223371,148.011449 L211.903631,147.130835 L213.684962,144.943177 L214.566297,147.622911 L216.754438,149.404954 L214.073112,150.285568 L212.291781,152.473226 M1435.10563,147.724849 C1434.88169,147.253054 1434.65776,146.782859 1434.43383,146.312665 L1436.10799,146.522945 L1435.10563,147.724849 M461.103298,144.89034 L459.558697,141.427659 L456.392183,139.346208 L459.853541,137.801665 L461.936114,134.634123 L463.480183,138.096804 L466.647763,140.178789 L463.185338,141.722798 L461.103298,144.89034 M296.96923,143.57102 L296.211591,141.705186 L294.56622,140.543843 L296.431792,139.785448 L297.594109,138.140568 L298.351747,140.006402 L299.997119,141.168278 L298.131014,141.92614 L296.96923,143.57102 M1591.43724,137.006977 L1591.57054,132.398965 L1589.19792,128.446343 L1593.80453,128.579236 L1597.76067,126.20478 L1597.62738,130.81386 L1600,134.765949 L1595.39339,134.632522 L1591.43724,137.006977 M646.601604,134.19435 L643.647826,131.730232 L639.824977,131.249897 L642.293567,128.293703 L642.773423,124.474507 L645.7272,126.939693 L649.544718,127.420027 L647.081459,130.375688 L646.601604,134.19435 M408.289327,123.809511 L407.299758,121.325112 L405.127078,119.76776 L407.611131,118.778803 L409.168529,116.605021 L410.157564,119.08942 L412.33131,120.64784 L409.847258,121.636262 L408.289327,123.809511 M804.879301,117.903527 L805.012595,113.295514 L802.639975,109.343426 L807.246589,109.476319 L811.1974,107.101863 L811.064107,111.710409 L813.442058,115.663031 L808.830112,115.529605 L804.879301,117.903527 M502.558022,96.800282 L501.711877,94.902959 L499.975866,93.761897 L501.873428,92.914906 L503.014951,91.179297 L503.86003,93.077153 L505.596574,94.218215 L503.699012,95.064138 L502.558022,96.800282 M604.214361,90.938595 L602.593515,89.588321 L600.503478,89.32467 L601.852405,87.704874 L602.11366,85.612216 L603.734505,86.963024 L605.829874,87.225607 L604.475615,88.845937 L604.214361,90.938595 M1457.54154,90.702164 L1457.5682,88.798971 L1456.5605,87.182911 L1458.46393,87.209062 L1460.07944,86.203561 L1460.05812,88.107288 L1461.06048,89.723348 L1459.15706,89.697197 L1457.54154,90.702164 M670.983599,71.598713 L671.004926,69.696053 L670.002561,68.079993 L671.905988,68.105611 L673.521502,67.100644 L673.494843,69.003838 L674.50254,70.619897 L672.599113,70.59428 L670.983599,71.598713 M179.435003,69.350212 L179.140692,65.734358 L176.942953,62.849147 L180.558932,62.554542 L183.444463,60.357276 L183.738775,63.973131 L185.937046,66.858876 L182.319469,67.152414 L179.435003,69.350212 M1380.58337,69.110045 C1380.08752,68.598221 1379.60233,68.10401 1379.10115,67.596456 L1379.1598,66.00388 L1377.10708,62.527323 L1381.1432,62.675159 L1384.61949,60.622528 L1384.4702,64.656807 L1386.52292,68.134431 L1382.4868,67.986061 L1380.58337,69.110045 M1560.18265,59.643712 L1557.93266,55.615838 L1553.86988,53.437786 L1557.89534,51.190886 L1560.07602,47.125119 L1562.32067,51.152993 L1566.38878,53.331579 L1562.36333,55.579012 L1560.18265,59.643712 M869.702459,51.833468 L866.935292,48.042025 L862.557942,46.34324 L866.354133,43.575978 L868.049623,39.200127 L870.81679,42.99157 L875.194139,44.689821 L871.40328,47.457617 L869.702459,51.833468 M592.452567,50.935775 L592.601856,46.900429 L590.54914,43.424406 L594.579927,43.572242 L598.056214,41.519611 L597.912257,45.554424 L599.964973,49.030981 L595.928854,48.883144 L592.452567,50.935775 M574.537959,45.311588 L574.617935,43.099379 L573.498272,41.195118 L575.705607,41.275708 L577.609035,40.150657 L577.529059,42.361798 L578.654053,44.26766 L576.446718,44.186003 L574.537959,45.311588 M495.032287,41.504667 L495.079206,38.032914 L493.245625,35.083124 L496.717646,35.13009 L499.667159,33.296812 L499.62024,36.769633 L501.453821,39.718889 L497.980733,39.671389 L495.032287,41.504667 M773.619376,40.540795 L771.374718,36.512921 L767.306609,34.335403 L771.337396,32.087969 L773.518073,28.022202 L775.762731,32.049542 L779.83084,34.228662 L775.800053,36.476095 L773.619376,40.540795 M295.429427,35.334499 L293.912017,33.256784 L291.514338,32.325468 L293.59158,30.808677 L294.523033,28.411273 L296.039376,30.488988 L298.437055,31.41977 L296.360346,32.936561 L295.429427,35.334499 M83.1429169,32.730551 L80.3752166,28.939107 L76,27.240323 L79.7913923,24.472527 L81.4906142,20.0966765 L84.2577814,23.888653 L88.6335311,25.586904 L84.8416057,28.3547 L83.1429169,32.730551 M383.375225,24.51042 L381.29745,22.65953 L378.551077,22.222425 L380.402253,20.14471 L380.839455,17.3977284 L382.916163,19.2486187 L385.663603,19.6862571 L383.812427,21.762905 L383.375225,24.51042 M1025.03171,22.391076 L1025.55422,19.1034508 L1027.56428,20.8940324 C1026.71654,21.389311 1025.87412,21.887258 1025.03171,22.391076 M1257.16985,376.272442 L1259.38784,379.681218 L1263.0934,381.354384 L1259.68642,383.572998 L1258.01226,387.279048 L1255.79426,383.870805 L1252.08871,382.197105 L1255.49568,379.980093 L1257.16985,376.272442 Z M238.996278,0 L242.78607,3.3772877 L247.799495,4.1762447 L244.422378,7.965553 L243.623152,12.9791814 L239.833359,9.6018937 L234.821534,8.8034704 L238.198118,5.0130947 L238.996278,0 Z M1425.89773,365.907349 L1430.16845,367.764644 L1434.75906,367.026529 L1432.90362,371.293504 L1433.6394,375.888708 L1429.37402,374.030879 L1424.7834,374.769527 L1426.63884,370.502019 L1425.89773,365.907349 Z M1209.49886,357.674944 L1210.75715,359.545581 L1212.82586,360.44274 L1210.95442,361.70015 L1210.05869,363.767191 L1208.8004,361.896553 L1206.73169,360.999928 L1208.60313,359.742518 L1209.49886,357.674944 Z M1274.24737,312.393777 L1276.19345,313.335233 L1278.33681,313.078521 L1277.39842,315.023344 L1277.65435,317.167238 L1275.70827,316.226315 L1273.56491,316.48196 L1274.5033,314.538739 L1274.24737,312.393777 Z M1083.03026,309.431712 L1084.58712,310.716341 L1086.59185,310.956508 L1085.3069,312.514394 L1085.06698,314.518992 L1083.51011,313.23543 L1081.50538,312.994729 L1082.79033,311.437377 L1083.03026,309.431712 Z M1218.20024,302.867136 L1220.56753,305.395298 L1223.92652,306.244424 L1221.39928,308.615677 L1220.55153,311.975886 L1218.17891,309.447723 L1214.81992,308.598598 L1217.34716,306.227345 L1218.20024,302.867136 Z M959.787347,301.334868 L962.63449,303.677301 L966.292056,304.115473 L963.946095,306.958521 L963.508893,310.616538 L960.667082,308.274105 L957.009516,307.835933 L959.350145,304.992351 L959.787347,301.334868 Z M1374.83043,279.180757 L1376.88848,283.791438 L1381.10055,286.565638 L1376.49393,288.619337 L1373.7161,292.835609 L1371.66339,288.224928 L1367.44599,285.44966 L1372.05794,283.397029 L1374.83043,279.180757 Z M1204.51369,248.257333 L1206.15587,249.106992 L1208.00064,248.937807 L1207.14757,250.578951 L1207.31818,252.420235 L1205.67601,251.570042 L1203.83656,251.739227 L1204.68431,250.097549 L1204.51369,248.257333 Z M1294.32666,232.236031 L1295.5423,234.104533 L1297.57369,235.020905 L1295.70758,236.236686 L1294.79052,238.267969 L1293.57489,236.4 L1291.5435,235.483094 L1293.40961,234.267847 L1294.32666,232.236031 Z M1386.79483,226.555804 L1389.13013,227.57358 L1391.65204,227.169032 L1390.63368,229.507195 L1391.03889,232.025751 L1388.69826,231.007441 L1386.18168,231.412523 L1387.20004,229.073826 L1386.79483,226.555804 Z M1151.46299,211.21551 L1151.94818,212.684267 L1153.14782,213.660414 L1151.67626,214.143951 L1150.70056,215.34212 L1150.2207,213.873897 L1149.02106,212.896682 L1150.48729,212.414212 L1151.46299,211.21551 Z M1077.25066,200.134185 L1079.05279,204.666411 L1083.01959,207.508926 L1078.48762,209.313918 L1075.64581,213.278815 L1073.83835,208.746589 L1069.87688,205.904074 L1074.40885,204.099082 L1077.25066,200.134185 Z M1272.97309,192.00852 L1274.2687,193.393486 L1276.11348,193.859411 L1274.72723,195.15845 L1274.25804,197.000267 L1272.96243,195.614768 L1271.11765,195.149377 L1272.5039,193.849804 L1272.97309,192.00852 Z M1000.2445,164.046094 L1001.12424,166.726362 L1003.31558,168.508405 L1000.63372,169.388485 L998.852923,171.576143 L997.973187,168.895341 L995.781847,167.114366 L998.463706,166.233752 L1000.2445,164.046094 Z M1248.49512,153.737574 L1250.04132,157.199721 L1253.20837,159.282239 L1249.74275,160.825715 L1247.66337,163.993791 L1246.11717,160.53111 L1242.95013,158.448592 L1246.41575,156.904582 L1248.49512,153.737574 Z M1084.15525,157.243485 L1084.91236,159.109853 L1086.55986,160.271729 L1084.69375,161.029057 L1083.53144,162.673937 L1082.77433,160.808637 L1081.12683,159.64676 L1082.99293,158.888899 L1084.15525,157.243485 Z M1195.727,135.708472 L1196.71871,138.192871 L1198.88872,139.750757 L1196.40947,140.739713 L1194.84727,142.912961 L1193.8609,140.428563 L1191.68555,138.87121 L1194.17014,137.882254 L1195.727,135.708472 Z M1289.57609,110.282747 L1290.41851,112.18007 L1292.15665,113.321132 L1290.25855,114.167589 L1289.11756,115.903199 L1288.26982,114.005876 L1286.53701,112.865348 L1288.4351,112.018357 L1289.57609,110.282747 Z M1388.67693,104.715133 L1390.29778,106.065941 L1392.38782,106.328524 L1391.03889,107.948854 L1390.77763,110.042046 L1389.15679,108.691238 L1387.06142,108.428121 L1388.41035,106.807792 L1388.67693,104.715133 Z M970.002939,79.45966 L970.296184,83.076581 L972.498188,85.961793 L968.877944,86.255864 L965.993479,88.453129 L965.700234,84.837809 L963.503561,81.952598 L967.118474,81.657992 L970.002939,79.45966 Z M1364.17231,59.254107 L1364.09233,61.464715 L1365.21733,63.370577 L1363.00466,63.289454 L1361.10123,64.414505 L1361.18121,62.20283 L1360.05621,60.298035 L1362.26888,60.378625 L1364.17231,59.254107 Z M1286.22777,52.399729 L1286.17978,55.87255 L1288.0139,58.821272 L1284.54294,58.77484 L1281.59449,60.608118 L1281.63715,57.135831 L1279.80837,54.186041 L1283.27932,54.233007 L1286.22777,52.399729 Z M1081.08417,47.51419 L1082.59839,49.591905 L1084.99766,50.522687 L1082.91829,52.038944 L1081.99057,54.437416 L1080.47103,52.359701 L1078.07175,51.428385 L1080.15112,49.912128 L1081.08417,47.51419 Z M1167.39953,36.500645 L1169.47357,38.352069 L1172.22474,38.789708 L1170.37463,40.866356 L1169.93743,43.613871 L1167.85806,41.762447 L1165.11222,41.325342 L1166.96233,39.248161 L1167.39953,36.500645 Z" id="Fill-5" fill="url(#linearGradient-2)"></path>
                <g id="Group-2" transform="translate(271.981238, 0.000000)">
                    <circle id="highlight" fill="url(#radialGradient-3)" opacity="0.9398484" cx="398.899312" cy="214.40838" r="214.40838"></circle>
                    <path d="M393.20075,238.07755 C393.20075,238.07755 399.389554,225.411776 401.906258,222.472232 C404.426775,219.532688 410.443985,202.44496 415.721437,201.646504 C420.998888,200.848048 415.965481,208.297624 415.965481,208.297624 C415.965481,208.297624 403.408654,243.40174 393.20075,238.07755" id="Fill-36" fill="#724EF2"></path>
                    <path d="M392.48843,239.502191 C392.48843,239.502191 398.677234,226.836417 401.193938,223.896872 C403.714455,220.957711 409.731665,203.8696 415.009117,203.071144 C420.286568,202.272688 415.253161,209.722265 415.253161,209.722265 C415.253161,209.722265 402.696334,244.826381 392.48843,239.502191" id="Fill-37" fill="url(#linearGradient-4)"></path>
                    <path d="M400.352517,244.325829 C400.352517,244.325829 416.506075,228.439679 412.510175,221.288666 C408.215904,213.60244 407.721138,205.216437 404.960266,205.14794 C402.395789,205.085465 401.995444,215.674973 404.11803,223.893392 C405.5419,229.390077 393.727935,237.931586 396.462369,240.166797 C399.20058,242.402762 400.352517,244.325829 400.352517,244.325829" id="Fill-40" fill="#724EF2"></path>
                    <path d="M401.064838,244.325829 C401.064838,244.325829 417.218395,228.439679 413.222495,221.288666 C408.928225,213.60244 408.433458,205.216437 405.672586,205.14794 C403.10811,205.085465 402.707764,215.674973 404.83035,223.893392 C406.25422,229.390077 394.440255,237.931586 397.174689,240.166797 C399.9129,242.402762 401.064838,244.325829 401.064838,244.325829" id="Fill-41" fill="url(#linearGradient-5)"></path>
                    <path d="M426.404015,223.917984 C424.77428,224.16162 423.075845,225.938194 421.427028,228.362445 C423.655985,223.443197 425.04145,219.613501 425.04145,219.613501 C425.04145,219.613501 430.083321,212.254112 424.800997,213.042902 C419.518674,213.831692 413.492092,230.712547 410.973065,233.616503 C410.728796,233.899484 410.44636,234.27553 410.141023,234.72043 C404.480845,229.932458 399.438974,227.06936 399.438974,227.06936 C393.858948,228.068493 390.095674,229.894248 390.095674,229.894248 C390.095674,229.894248 383.454602,224.169565 380.859241,237.376968 C376.737197,258.360664 363.283302,275.47267 363.283302,275.47267 L384.565264,287.065041 C384.565264,287.065041 393.191024,268.791981 397.900841,263.47361 C403.011413,257.703528 409.675385,255.621275 413.427208,252.809628 C415.255411,251.441257 418.54923,246.991122 418.915634,244.624375 C423.53385,237.698537 426.648284,230.488962 426.648284,230.488962 C426.648284,230.488962 431.686338,223.129195 426.404015,223.917984" id="Fill-44" fill="url(#linearGradient-6)"></path>
                    <path d="M390.820758,247.833452 C395.549374,247.37367 399.807388,241.589527 394.404869,233.489168 C388.998584,225.388808 392.752112,222.751648 395.056183,219.720175 C397.360254,216.688701 398.836064,210.694232 395.613376,209.583156 C392.435867,208.489387 390.500748,213.231309 386.735927,215.857181 C380.365848,220.2981 381.604475,227.723085 381.604475,227.723085 C381.604475,227.723085 377.817064,249.09804 390.820758,247.833452" id="Fill-47" fill="#724EF2"></path>
                    <path d="M390.774566,248.503194 C395.580903,247.878286 399.723106,241.870089 393.941681,233.837527 C388.156418,225.805347 391.891694,223.004906 394.137467,219.853647 C396.383239,216.702388 397.688474,210.574324 394.363963,209.555843 C391.089359,208.553396 389.277385,213.4263 385.530592,216.21567 C379.188684,220.932443 380.70506,228.419881 380.70506,228.419881 C380.70506,228.419881 377.564818,250.222166 390.774566,248.503194" id="Fill-48" fill="url(#linearGradient-7)"></path>
                    <path d="M134.102176,459.822364 L176.227111,486.541402 C187.115207,493.449602 189.71195,505.434684 173.41777,519.455828 L114.683552,579.828643 L160.043027,579.828643 C162.104476,577.864621 163.903973,576.184965 164.887243,575.347033 C164.887243,575.347033 206.757819,538.379443 219.392263,524.020851 C236.601377,504.460256 238.628658,493.806007 227.201472,480.027523 L174.340297,420.924876 C167.613063,412.810964 164.249446,417.717226 156.276991,424.617843 L142.484643,436.561219 C132.982236,444.788878 123.483624,453.088576 134.102176,459.822364" id="Fill-51" fill="url(#linearGradient-8)"></path>
                    <path d="M87.8527638,579.828643 L108.341252,527.24563 L134.475304,454.65342 C138.472501,450.638667 142.077592,446.259282 145.241087,441.564641 C156.486534,424.867521 162.10545,404.273394 159.737587,382.71565 L159.73378,382.69324 C159.299799,378.740019 158.606952,374.876816 157.678079,371.118824 C157.049948,371.17238 156.421817,371.233152 155.793687,371.30152 C133.489329,373.738099 114.032499,384.223556 100.004242,399.540771 C97.1452943,402.655338 94.5147582,405.97881 92.1316677,409.473202 L52.7116948,579.828643 L87.8527638,579.828643" id="Fill-54" fill="url(#linearGradient-9)"></path>
                    <path d="M403.885553,262.225636 C395.799647,286.965316 384.703797,297.625255 369.70715,318.266239 C364.263474,325.763181 358.406594,332.943936 352.170627,339.776735 C338.913986,338.229465 325.975778,335.641731 313.443191,332.099386 C299.519359,328.164456 286.099711,323.05177 273.2866,316.876684 C251.542222,306.396775 231.560593,292.857121 213.906553,276.815209 C209.914777,273.190036 206.044308,269.436648 202.298937,265.564124 C204.744042,265.233187 207.208102,264.960117 209.683534,264.739997 C214.558581,264.306565 219.494282,264.085688 224.483056,264.085688 C224.919005,264.085688 225.354954,264.08758 225.790903,264.090983 C225.908419,263.957474 226.025936,263.82283 226.143453,263.687808 C266.273507,265.677209 303.901594,277.14312 336.821431,295.884718 C352.367752,275.848118 359.97601,268.410556 373.968078,248.59975 C378.183516,250.749135 399.537436,260.314525 403.885553,262.225636" id="Fill-58" fill="url(#linearGradient-10)"></path>
                    <path d="M302.736085,283.98121 C301.677784,292.842816 299.913948,301.487036 297.50527,309.858101 C289.198173,311.704554 281.130048,314.176607 273.346413,317.224942 C226.00355,335.766482 189.342323,375.578835 175.144396,424.89395 C174.325066,425.076053 173.505736,425.250569 172.678819,425.417497 C171.02878,425.762735 169.371153,426.077622 167.702148,426.365952 C158.450546,427.978326 148.933421,428.81676 139.219049,428.81676 C126.43219,428.81676 113.982925,427.363727 102.034362,424.609413 C101.545039,424.495599 101.059511,424.381784 100.573982,424.264176 C89.8733794,421.691965 79.5824423,418.076454 69.8073796,413.531457 C77.7617088,409.832482 85.3708574,405.515114 92.5741341,400.647643 C98.4422062,396.6831 104.037168,392.346763 109.332468,387.679226 C112.55289,384.837275 115.66331,381.872783 118.652347,378.789545 C132.914759,364.089249 144.457451,346.737452 152.464885,327.543755 C153.174212,325.849434 153.853194,324.13956 154.505624,322.416027 C160.08162,307.663376 163.597911,291.899293 164.705524,275.473567 L164.705524,275.459151 C172.735717,272.32811 181.076952,269.81091 189.664745,267.962561 L189.691297,267.955732 C193.844846,267.062287 198.051498,266.325148 202.315049,265.753799 C204.76166,265.421839 207.227236,265.147926 209.704192,264.927125 C214.582241,264.492353 219.52098,264.270794 224.512824,264.270794 C224.949042,264.270794 225.385259,264.272691 225.821477,264.276106 C244.654688,264.422168 262.733054,267.726965 279.555872,273.687436 C287.589859,276.532043 295.335562,279.981385 302.736085,283.98121" id="Fill-61" fill="url(#linearGradient-11)"></path>
                    <path d="M282.078799,254.573896 C279.135191,255.495426 275.949124,256.306206 273.308591,257.734615 C262.795705,263.403273 254.843797,272.421265 250.915198,283.50344 C240.879655,280.598994 232.037466,274.474486 225.805503,266.138758 C226.745033,262.085613 227.165549,257.855193 226.998858,253.527252 C230.336462,251.480835 232.923958,248.421794 234.393868,244.847179 C233.787719,243.979323 233.367204,242.967833 233.181571,241.858821 C232.753479,239.272263 233.734681,236.781334 235.564492,235.163554 C236.572213,234.273396 237.833759,233.645939 239.258208,233.411588 C239.375649,233.392311 239.49309,233.373789 239.61432,233.363584 C239.190016,232.245501 238.868,231.068452 238.667213,229.844911 C237.011671,219.837729 243.808109,210.388455 253.847441,208.738168 C253.911844,208.727962 253.972459,208.718134 254.036862,208.709819 C254.116419,208.816789 254.199764,208.924137 254.279321,209.029973 C257.957884,213.813009 262.170615,218.12961 266.819015,221.906069 C268.44425,223.226753 270.118735,224.477131 271.838681,225.660227 C272.956267,226.427539 274.092795,227.166124 275.248265,227.872202 C276.945481,228.915821 278.684369,229.891404 280.464929,230.800082 C278.161566,232.719874 275.744549,234.508504 273.21388,236.155767 C274.823961,242.740663 278.146412,249.463902 282.078799,254.573896 Z" id="Fill-64" fill="#724EF2"></path>
                    <path d="M272.822885,236.155767 C274.44388,242.740663 277.407439,248.707929 281.366479,253.817924 C278.40292,254.739454 275.576669,255.92822 272.918238,257.356629 C262.334098,263.025287 254.328293,272.421265 250.373067,283.50344 C240.269505,280.598994 231.367385,274.474486 225.093183,266.138758 C226.039081,262.085613 226.462447,257.855193 226.294626,253.527252 C229.654852,251.480835 232.259885,248.421794 233.739758,244.847179 C233.129501,243.979323 232.706136,242.967833 232.519244,241.858821 C232.088251,239.272263 233.076104,236.781334 234.918316,235.163554 C235.932868,234.273396 237.202965,233.645939 238.637068,233.411588 C238.755305,233.392311 238.873542,233.373789 238.995594,233.363584 C238.568414,232.245501 238.244215,231.068452 238.042068,229.844911 C236.375304,219.837729 243.217807,210.388455 253.325184,208.738168 C253.390024,208.727962 253.451049,208.718134 253.515889,208.709819 C253.595985,208.816789 253.679895,208.924137 253.759992,209.029973 C257.463487,213.813009 261.704771,218.12961 266.384677,221.906069 C268.020928,223.226753 269.706762,224.477131 271.438365,225.660227 C272.563526,226.427539 273.707757,227.166124 274.871059,227.872202 C276.579778,228.915821 278.330452,229.891404 280.123081,230.800082 C277.804106,232.719874 275.370707,234.508504 272.822885,236.155767" id="Fill-64-Copy" fill="url(#linearGradient-12)"></path>
                    <path d="M253.434926,204.899808 C253.648051,206.168621 253.629022,207.421142 253.419703,208.617971 C253.374034,208.624411 253.324558,208.630094 253.278889,208.637672 C253.138074,208.536894 252.99726,208.43839 252.856445,208.336854 C252.936367,208.445209 253.020095,208.555458 253.103822,208.664571 C253.039124,208.672906 252.978231,208.682756 252.913532,208.692986 C242.828169,210.347102 236.000568,219.818301 237.663701,229.848702 C237.865409,231.075082 238.188901,232.254861 238.615151,233.375539 C238.493365,233.385768 238.375385,233.404332 238.257406,233.423654 C236.826426,233.658549 235.559095,234.287462 234.546753,235.179685 C232.708553,236.801219 231.722851,239.297927 232.152906,241.890487 C232.33939,243.002071 232.761834,244.015909 233.370762,244.885779 C231.894112,248.468687 229.294752,251.534826 225.941845,253.585991 C225.896175,252.477817 225.816253,251.362065 225.694468,250.242145 C225.633575,249.707948 225.568876,249.178298 225.492761,248.653572 C224.324381,240.472023 221.123705,233.044791 216.457797,226.820828 C215.171437,225.10382 213.770904,223.47774 212.27142,221.953573 C214.395055,221.261012 216.476826,220.485858 218.509122,219.628869 C218.611878,219.586437 218.710829,219.544383 218.80978,219.500435 C223.715453,217.404943 228.339497,214.831705 232.624825,211.850431 C236.377342,209.236654 239.87487,206.3088 243.083157,203.108543 C244.392351,201.807906 245.648265,200.459911 246.854702,199.070241 C247.360874,198.490581 247.855627,197.906374 248.342769,197.312695 C250.961158,198.93726 252.894503,201.631735 253.434926,204.899808" id="Fill-67" fill="url(#linearGradient-13)"></path>
                    <path d="M263.462751,226.743211 C263.575191,227.464435 263.586435,228.177105 263.507727,228.86528 C261.315154,230.03479 258.942677,230.932529 256.435272,231.504065 C258.875213,229.483083 260.985331,227.07408 262.679421,224.380863 C263.057968,225.098976 263.324076,225.893294 263.462751,226.743211" id="Fill-70" fill="url(#linearGradient-14)"></path>
                    <path d="M263.462751,226.743211 C263.575191,227.464435 263.586435,228.177105 263.507727,228.86528 C261.315154,230.03479 258.942677,230.932529 256.435272,231.504065 C258.875213,229.483083 260.985331,227.07408 262.679421,224.380863 C263.057968,225.098976 263.324076,225.893294 263.462751,226.743211" id="Fill-73" fill="#031E4D"></path>
                    <polyline id="Fill-74" fill="url(#linearGradient-15)" points="394.472171 182.493207 401.245054 152.436523 405.930197 181.737249 418.131957 188.419035 403.665019 194.722841 399.870846 225.093183 394.094641 195.10082 380.378987 188.419035 394.472171 182.493207"></polyline>
                    <path d="M173.806129,580.540963 L165.771402,580.540963 L165.771402,557.674775 L22.2811305,557.674775 L22.2811305,580.540963 L14.246404,580.540963 L14.246404,391.77611 L22.2811305,391.77611 L22.2811305,414.665108 L165.771402,414.665108 L165.771402,391.77611 L173.806129,391.77611 L173.806129,580.540963 Z M22.2811305,547.817414 L165.771402,547.817414 L165.771402,491.102423 L22.2811305,491.102423 L22.2811305,547.817414 Z M22.2811305,481.241261 L165.771402,481.241261 L165.771402,424.52627 L22.2811305,424.52627 L22.2811305,481.241261 Z" id="Clip-76" fill="url(#linearGradient-16)"></path>
                    <path d="M21.5684349,435.839132 C24.0691175,437.012826 28.4585332,427.688263 31.5409457,420.967237 C32.9914927,417.809349 36.2665559,416.291575 36.5234236,413.783615 C37.0598238,413.275142 36.1041248,414.437367 36.5234236,413.783615 C39.2960838,409.444386 37.0900435,400.34921 32.7950644,397.546871 C28.5000854,394.744532 22.7734466,395.990865 20.0007864,400.333917 C17.2281262,404.676969 18.4633577,410.46898 22.7583368,413.271319 L22.7696691,413.278965 C23.3740637,413.672745 23.619599,414.437367 23.2834046,415.079649 C23.0038721,415.611061 22.735672,416.153943 22.4750268,416.719763 C19.3926144,423.440789 19.0639748,434.665437 21.5684349,435.839132" id="Fill-79" fill="url(#linearGradient-17)"></path>
                    <path d="M46.300813,395.121111 L25.8174125,417.547712 C24.6302456,418.844047 17.6637517,423.095264 11.6133995,426.000581 C5.00191056,429.168977 4.81104771,420.224263 4.81104771,420.224263 C4.81104771,420.224263 5.2194942,417.223628 2.17714045,411.546442 C2.17714045,411.546442 -0.834675249,401.084253 0.22652217,400.024308 C3.40247991,396.859725 -2.98379089,391.369364 8.67792896,393.653202 L30.3561309,386.789869 L46.300813,395.121111" id="Fill-82" fill="url(#linearGradient-18)"></path>
                    <path d="M170.244528,273.530957 C168.751244,290.902465 164.176401,307.392353 157.070954,322.449891 C110.547379,333.502482 71.3230354,363.401148 47.9168591,403.638892 C47.3165058,404.665801 46.7313514,405.692711 46.1537964,406.734834 C44.4363302,406.012194 42.7340629,405.26293 41.0469943,404.490846 C31.8783087,400.291927 26.6423167,393.103559 17.808005,385.393369 C54.1635723,330.570084 105.972536,293.204645 170.244528,273.530957" id="Fill-85" fill="url(#linearGradient-19)"></path>
                    <path d="M245.253996,290.626642 L247.88743,283.099922 C237.906717,283.301547 225.093183,266.407755 225.093183,266.407755 C229.280342,288.986402 245.253996,290.626642 245.253996,290.626642" id="Fill-91" fill="#151E28"></path>
                    <path d="M247.852409,292.051282 C247.852409,292.051282 230.241002,341.01619 186.159211,350.945375 C169.799782,354.630453 171.740537,373.255785 171.740537,373.255785 C171.740537,373.255785 190.4479,364.658661 196.372913,362.532144 C218.269203,354.671808 249.070138,327.072232 247.852409,292.051282" id="Fill-92" fill="#151E28"></path>
                    <path d="M250.02439,283.745448 L250.02439,290.626642 C250.02439,290.626642 257.383321,273.99503 256.332581,273.544858 C255.278089,273.094306 250.02439,283.745448 250.02439,283.745448" id="Fill-93" fill="#151E28"></path>
                </g>
            </g>
        </g>
    </g>
</svg>