<?xml version="1.0" encoding="UTF-8"?>
<svg width="24px" height="24px" viewBox="0 0 24 24" version="1.1" xmlns="http://www.w3.org/2000/svg" xmlns:xlink="http://www.w3.org/1999/xlink">
    <!-- Generator: Sketch 52.6 (67491) - http://www.bohemiancoding.com/sketch -->
    <title>Atom/icons/representative/premium-only</title>
    <desc>Created with Sketch.</desc>
    <defs>
        <path d="M13.0256473,19.3637322 L13.0256473,16.9091238 L17.5384684,11.5909369 L6.46154591,11.5909369 L10.9743671,16.9091238 L10.9743671,19.3637322 L7.69230902,19.3637322 C5.65307441,19.3637322 4,17.7152136 4,15.6818237 L4,6.68181433 C4,4.64842444 5.65307441,3 7.69230902,3 L16.307691,3 C18.3469256,3 20,4.64842444 20,6.68181433 L20,15.6818237 C20,17.7152136 18.3469256,19.3637322 16.307691,19.3637322 L14.6666609,19.3637322 L13.0256481,21 L13.0256481,19.3637322 Z M12.1627604,5.97266441 C12.1052189,5.81819174 11.8958581,5.81819174 11.8383165,5.97266441 L11.5074566,6.86028399 C11.4622298,6.981704 11.3532161,7.06438086 11.2286876,7.07180508 L10.3179856,7.12586467 C10.1594677,7.13530981 10.0947048,7.34326238 10.2176332,7.44820658 L10.9239612,8.05087125 C11.0205695,8.13345771 11.0622283,8.26711491 11.0304735,8.39306072 L10.7984514,9.31412119 C10.7580405,9.47447049 10.9273532,9.60292649 11.0608897,9.51339977 L11.8282365,8.99833131 C11.9332342,8.9277906 12.0678427,8.9277906 12.1728404,8.99833131 L12.9400966,9.51339977 C13.0737238,9.60292649 13.2430364,9.47447049 13.2026256,9.31412119 L12.9706034,8.39306072 C12.9388486,8.26711491 12.9805074,8.13345771 13.0771158,8.05087125 L13.7833584,7.44820658 C13.9062815,7.34326238 13.8416093,7.13530981 13.6830913,7.12586467 L12.7723893,7.07180508 C12.6477702,7.06438086 12.5388471,6.981704 12.4936203,6.86028399 L12.1627604,5.97266441 Z" id="path-1"></path>
    </defs>
    <g id="Atom/icons/representative/premium-only" stroke="none" stroke-width="1" fill="none" fill-rule="evenodd">
        <mask id="mask-2" fill="white">
            <use xlink:href="#path-1"></use>
        </mask>
        <g id="Mask">
            <use fill="#624bff" xlink:href="#path-1"></use>
            <use fill="#624bff" xlink:href="#path-1"></use>
        </g>
    </g>
</svg>